<?xml version="1.0" encoding="utf-8"?>
<svg width="1521px" height="731px" viewBox="0 0 1521 731" version="1.1" xmlns:xlink="http://www.w3.org/1999/xlink" xmlns="http://www.w3.org/2000/svg">
  <desc>Created with Lunacy</desc>
  <g id="Big-Logo" transform="translate(0.5 0.5)">
    <path d="M119.715 366.067L14.7619 263.09L14.7619 117.46L119.715 14.4838L268.141 14.4838L373.094 117.46L373.094 263.091L268.141 366.067L119.715 366.067Z" transform="translate(224.9563 228.3301)" id="Polygon" fill="#1B2144" stroke="none" />
    <path d="M71.8289 219.64L8.85713 157.854L8.85713 70.476L71.8289 8.69028L160.884 8.6903L223.856 70.476L223.856 157.854L160.884 219.64L71.8289 219.64Z" transform="translate(169.1047 0)" id="Polygon-2" fill="#1B2144" stroke="none" />
    <path d="M47.8859 146.427L5.90475 105.236L5.90475 46.984L47.886 5.79353L107.256 5.79353L149.238 46.984L149.237 105.236L107.256 146.427L47.8859 146.427Z" transform="translate(0 176.5754)" id="Polygon-3" fill="#1B2144" stroke="none" />
    <path d="M33.5202 102.498L4.13333 73.6652L4.13333 32.8887L33.5202 4.05546L75.0794 4.05547L104.466 32.8888L104.466 73.6652L75.0794 102.498L33.5202 102.498Z" transform="translate(77.57129 398.8169)" id="Polygon-4" fill="#1B2144" stroke="none" />
    <g id="anithy" fill="#FF8800" transform="translate(430 305.9998)">
      <path d="M492.275 121.7Q489.65 126.775 483 128.875Q476.35 130.975 465.325 130.975Q454.3 130.975 447.65 128.875Q441 126.775 438.375 121.525Q435.75 116.275 435.225 112.25Q434.7 108.225 434.7 100.175Q434.7 92.125 435.225 88.1Q435.75 84.075 438.2 79.175Q443.1 69.725 465.5 69.725Q487.55 69.725 492.1 79.175Q494.9 84.425 495.425 88.45Q495.95 92.475 495.95 100.525Q495.95 108.575 495.425 112.6Q494.9 116.625 492.275 121.7ZM783.3 156.525Q818.3 156.525 841.575 183.125Q864.85 209.725 864.85 248.225L864.85 309.825Q864.85 317.875 864.325 321.9Q863.8 325.925 861 331.175C857.967 337.242 848.983 340.275 834.05 340.275C819.817 340.275 810.95 337.242 807.45 331.175Q804.65 325.925 804.125 321.725Q803.6 317.525 803.6 309.125L803.6 247.875Q803.6 233.525 795.55 225.475Q787.5 217.425 775.075 217.425Q762.65 217.425 753.2 224.95Q743.75 232.475 742.35 241.925L742.35 309.825Q742.35 317.875 741.825 321.9Q741.3 325.925 738.5 331.175C735.467 337.242 726.483 340.275 711.55 340.275C696.85 340.275 687.867 337.125 684.6 330.825Q682.15 325.575 681.625 321.725Q681.1 317.875 681.1 309.475L681.1 100.175Q681.1 92.125 681.625 88.1Q682.15 84.075 684.6 79.175Q689.5 69.725 711.9 69.725Q733.95 69.725 738.5 79.175Q741.3 84.425 741.825 88.45Q742.35 92.475 742.35 100.525L742.35 177.875Q759.85 156.525 783.3 156.525ZM608.3 216.375L631.05 217.775Q639.1 217.775 643.125 217.25Q647.15 216.725 652.4 214.275Q661.85 209.375 661.85 187.325Q661.85 164.925 652.75 160.375Q647.5 157.575 643.475 157.05Q639.45 156.525 631.575 156.525Q623.7 156.525 608.3 157.925L608.3 123.625Q608.3 111.375 606.55 105.775Q602 92.825 578.2 92.825Q555.8 92.825 551.25 101.575Q548.45 106.125 547.925 109.975Q547.4 113.825 547.4 121.875L547.4 157.925L535.85 156.525Q527.45 156.525 521.85 161.075Q518.7 163.875 516.95 170.35Q515.2 176.825 515.2 191.175Q515.2 205.525 520.275 211.475Q525.35 217.425 533.05 217.425Q540.75 217.425 547.4 216.375L547.4 268.175Q547.4 307.375 566.3 323.825Q585.2 340.275 621.6 340.275C626.733 340.275 630.642 340.1 633.325 339.75Q637.35 339.225 642.6 336.775Q652.4 331.875 652.4 309.825Q652.4 290.925 644.35 286.375Q639.45 283.575 635.075 283.05Q630.7 282.525 622.475 282.525Q614.25 282.525 611.275 278.325Q608.3 274.125 608.3 264.675L608.3 216.375ZM1085 179.975Q1085 167.025 1064.35 157.925Q1053.15 153.025 1044.93 153.025Q1036.7 153.025 1032.15 158.975Q1029.35 162.475 1028.13 164.925Q1026.9 167.375 1009.75 205Q992.6 242.625 990.85 248.225Q975.1 222.675 957.775 193.1Q940.45 163.525 938.525 160.55Q936.6 157.575 932.4 154.775Q928.2 151.975 921.55 151.975Q914.9 151.975 903 158.975Q884.1 170.175 884.1 181.375Q884.1 186.975 891.1 198.525L960.75 315.775Q927.15 387.525 927.15 395.925Q927.15 408.525 947.8 417.625Q960.05 422.875 966.35 422.875Q972.65 422.875 976.85 419.725Q981.05 416.575 982.975 413.075Q984.9 409.575 987.7 402.925L1079.4 197.825Q1079.4 197.475 1082.2 191.875Q1085 186.275 1085 179.975ZM161.35 155.825Q135.8 155.825 133.7 175.425Q131.25 171.925 127.4 168.25Q123.55 164.575 113.75 160.375Q103.95 156.175 92.05 156.175Q60.9 156.175 34.825 183.65Q8.75 211.125 8.75 247.7Q8.75 284.275 34.65 311.925C51.9167 330.358 70.6417 339.575 90.825 339.575Q121.1 339.575 134.05 321.025Q135.1 330.125 141.575 334.85Q148.05 339.575 167.125 339.575Q186.2 339.575 191.1 330.475Q193.55 325.225 194.075 321.2Q194.6 317.175 194.6 309.125L194.6 186.625Q194.6 178.575 194.075 174.55Q193.55 170.525 190.925 165.275Q188.3 160.025 181.65 157.925Q175 155.825 161.35 155.825ZM383.425 182.6Q360.15 155.825 325.15 155.825Q310.8 155.825 298.9 163.875Q294.35 166.675 289.45 171.225Q284.55 175.775 283.15 178.225Q283.15 169.825 279.65 163.875Q274.75 155.825 253.4 155.825Q231.35 155.825 226.45 164.575Q223.65 169.475 223.125 173.5Q222.6 177.525 222.6 185.225L222.6 309.125Q222.6 317.175 223.125 321.2Q223.65 325.225 226.1 330.475Q231 339.925 253.05 339.925Q275.45 339.925 280 330.475Q282.8 325.575 283.325 321.55Q283.85 317.525 283.85 309.475L283.85 247.525Q283.85 233.875 292.425 225.475Q301 217.075 314.825 217.075Q328.65 217.075 336.875 225.125Q345.1 233.175 345.1 247.525L345.1 309.125Q345.1 321.025 347.2 326.975C349.767 335.608 359.333 339.925 375.9 339.925C390.833 339.925 399.933 336.775 403.2 330.475Q405.65 325.575 406.175 321.55Q406.7 317.525 406.7 309.475L406.7 247.875Q406.7 209.375 383.425 182.6ZM434.7 186.625Q434.7 178.575 435.225 174.55Q435.75 170.525 438.2 165.275Q443.1 156.175 465.5 156.175Q482.3 156.175 489.3 162.125Q495.25 167.025 495.6 177.175Q495.95 180.675 495.95 187.325L495.95 309.825Q495.95 317.875 495.425 321.9Q494.9 325.925 492.1 331.175C489.067 337.242 480.083 340.275 465.15 340.275C450.45 340.275 441.467 337.125 438.2 330.825Q435.75 325.575 435.225 321.725Q434.7 317.875 434.7 309.475L434.7 186.625ZM79.1 269.05Q70 259.775 70 248.225Q70 236.675 78.575 226.875Q87.15 217.075 100.975 217.075Q114.8 217.075 123.025 226.875Q131.25 236.675 131.25 248.05Q131.25 259.425 122.675 268.875Q114.1 278.325 101.15 278.325Q88.2 278.325 79.1 269.05Z" />
    </g>
  </g>
</svg>